<svg width="93" height="48" viewBox="0 0 93 48" fill="none" xmlns="http://www.w3.org/2000/svg">
<path d="M15.816 21.672C14.952 25.2 12.12 27.192 8.52 27.192C3.528 27.192 0.72 23.592 0.72 18.6C0.72 13.56 3.624 9.984 8.52 9.984C12.168 9.984 14.856 11.88 15.816 15.456L15.456 15.792H13.104L12.744 15.456C12.192 13.896 10.8 12.312 8.52 12.312C5.712 12.312 3.6 14.616 3.6 18.6C3.6 22.704 5.808 24.864 8.52 24.864C10.824 24.864 12.096 23.256 12.768 21.672L13.104 21.336H15.48L15.816 21.672ZM21.8113 21.552C20.2273 21.648 19.3153 22.272 19.3153 23.544C19.3153 24.816 20.1793 25.392 21.5233 25.392C23.1073 25.392 24.4993 24.072 24.4993 21.744V21.36L21.8113 21.552ZM16.6753 23.64C16.6753 21.648 18.2113 20.328 21.0433 20.136L24.4993 19.92V19.272C24.4993 17.28 23.6593 16.704 22.1473 16.704C20.6113 16.704 19.9393 17.52 19.9393 18.48L19.5553 18.816H17.6593L17.3233 18.456C17.3233 15.936 19.4833 14.736 22.1713 14.736C25.3393 14.736 27.0673 16.08 27.0673 19.656V26.64L26.7073 27H24.8593L24.4993 26.64V23.112H24.4513C24.2113 25.848 22.7953 27.192 20.8513 27.192C18.2113 27.192 16.6753 25.8 16.6753 23.64ZM37.4214 21.048C37.4214 18.672 36.1014 16.992 34.2054 16.992C32.3094 16.992 31.0614 18.672 31.0614 21.048C31.0614 23.4 32.3094 25.08 34.2054 25.08C36.1014 25.08 37.4214 23.4 37.4214 21.048ZM28.4934 31.44V15.36L28.8534 15H30.7014L31.0614 15.36V19.512H31.1094C31.3494 16.416 32.9094 14.808 35.2134 14.808C38.1174 14.808 40.1334 17.448 40.1334 21.048C40.1334 24.552 38.1414 27.264 35.2134 27.264C33.0534 27.264 31.3494 25.728 31.1094 22.752H31.0614V31.44L30.7014 31.8H28.8534L28.4934 31.44ZM46.3236 27C44.3076 27 42.8436 25.56 42.8436 23.568L42.8436 16.872H41.4516L41.0916 16.512V15.36L41.4516 15H42.8436V11.76L43.2036 11.4H45.0516L45.4116 11.76V15H48.5316L48.8916 15.36V16.512L48.5316 16.872H45.4116L45.4116 22.704C45.4116 24.024 46.1316 24.792 47.3556 24.792H48.5316L48.8916 25.152V26.64L48.5316 27H46.3236ZM50.3372 21.192V15.36L50.6972 15H52.5452L52.9052 15.36V21.024C52.9052 23.952 54.0812 25.104 55.5692 25.104C57.3452 25.104 58.3772 23.328 58.3772 21.024V15.36L58.7372 15H60.5852L60.9452 15.36L60.9452 26.64L60.5852 27H58.7372L58.3772 26.64V22.752H58.3052C58.0652 25.2 56.9852 27.24 54.4412 27.24C51.6572 27.24 50.3372 24.792 50.3372 21.192ZM68.9841 17.592C68.7681 17.232 68.3841 17.016 67.7601 17.016C66.0801 17.016 64.9521 18.912 64.9521 20.976V26.64L64.5921 27H62.7441L62.3841 26.64L62.3841 15.36L62.7441 15H64.5921L64.9521 15.36V19.248H65.0241C65.2641 16.896 66.3441 14.76 68.9601 14.76L69.3441 15.12V17.28L68.9841 17.592ZM80.5389 21.576L72.6429 21.576C72.8589 23.856 74.0349 25.104 75.6909 25.104C77.4429 25.104 77.9709 24.024 78.2349 23.256L78.5229 23.064H80.5629L80.8989 23.52C80.1549 25.896 78.1629 27.216 75.5949 27.216C72.0189 27.216 69.9309 24.6 69.9309 20.976C69.9309 17.352 72.0909 14.76 75.5949 14.76C78.8589 14.76 80.9469 17.304 80.9469 20.664C80.9469 20.856 80.9469 21.024 80.9229 21.216L80.5389 21.576ZM72.6429 20.208L78.3069 20.208C78.3069 18.024 77.2509 16.872 75.6669 16.872C74.0589 16.872 72.8349 18.024 72.6429 20.208Z" fill="white"/>
<path fill-rule="evenodd" clip-rule="evenodd" d="M62.6 27V38.08C62.6 39.088 62.296 39.848 61.688 40.36C61.08 40.872 60.24 41.128 59.168 41.128C57.424 41.128 56.304 40.488 55.808 39.208L53.912 40.312C54.344 41.288 55.024 42.032 55.952 42.544C56.88 43.056 57.952 43.312 59.168 43.312C60.8 43.312 62.144 42.864 63.2 41.968C64.272 41.056 64.808 39.76 64.808 38.08V27H62.6ZM73.4896 43.312C75.2496 43.312 76.7456 42.704 77.9776 41.488C79.2096 40.272 79.8256 38.776 79.8256 37C79.8256 35.224 79.2096 33.728 77.9776 32.512C76.7456 31.296 75.2496 30.688 73.4896 30.688C71.7296 30.688 70.2336 31.296 69.0016 32.512C67.7856 33.728 67.1776 35.224 67.1776 37C67.1776 38.776 67.7856 40.272 69.0016 41.488C70.2336 42.704 71.7296 43.312 73.4896 43.312ZM76.5136 40.048C75.6976 40.864 74.6896 41.272 73.4896 41.272C72.3056 41.272 71.3056 40.864 70.4896 40.048C69.6736 39.232 69.2656 38.216 69.2656 37C69.2656 35.784 69.6736 34.768 70.4896 33.952C71.3056 33.136 72.3056 32.728 73.4896 32.728C74.6896 32.728 75.6976 33.136 76.5136 33.952C77.3296 34.768 77.7376 35.784 77.7376 37C77.7376 38.216 77.3296 39.232 76.5136 40.048ZM92.4264 31H90.1944L86.7384 40.408L82.6584 31H80.4264L85.6584 42.952L85.4424 43.408C84.7544 45.152 83.6744 45.968 82.2024 45.856V47.8C83.4024 47.88 84.4584 47.56 85.3704 46.84C86.2984 46.136 87.0184 45.104 87.5304 43.744L92.4264 31Z" fill="white"/>
</svg>
